<?xml version="1.0" encoding="UTF-8" standalone="no"?>
<svg
   xmlns:dc="http://purl.org/dc/elements/1.1/"
   xmlns:cc="http://creativecommons.org/ns#"
   xmlns:rdf="http://www.w3.org/1999/02/22-rdf-syntax-ns#"
   xmlns:svg="http://www.w3.org/2000/svg"
   xmlns="http://www.w3.org/2000/svg"
   xmlns:xlink="http://www.w3.org/1999/xlink"
   xmlns:sodipodi="http://sodipodi.sourceforge.net/DTD/sodipodi-0.dtd"
   xmlns:inkscape="http://www.inkscape.org/namespaces/inkscape"
   width="96px"
   height="96px"
   viewBox="0 0 96 96"
   version="1.1"
   id="svg11"
   sodipodi:docname="hog-taja.svg"
   inkscape:version="0.92.5 (2060ec1f9f, 2020-04-08)">
  <metadata
     id="metadata17">
    <rdf:RDF>
      <cc:Work
         rdf:about="">
        <dc:format>image/svg+xml</dc:format>
        <dc:type
           rdf:resource="http://purl.org/dc/dcmitype/StillImage" />
        <dc:title></dc:title>
      </cc:Work>
    </rdf:RDF>
  </metadata>
  <defs
     id="defs15">
    <linearGradient
       id="bj"
       y2="6"
       xlink:href="#e"
       gradientUnits="userSpaceOnUse"
       x2="32.070999"
       gradientTransform="matrix(0.21429,0,0,0.21429,14.714,18.714)"
       y1="90"
       x1="63.535999" />
    <linearGradient
       id="e">
      <stop
         stop-color="#b3b3b3"
         offset="0"
         id="stop2" />
      <stop
         stop-color="#d2d2d2"
         offset="1"
         id="stop4" />
    </linearGradient>
    <linearGradient
       id="bk"
       y2="84.286003"
       xlink:href="#b"
       gradientUnits="userSpaceOnUse"
       x2="48"
       gradientTransform="matrix(-0.21429,0,0,-0.21429,35.286,39.286)"
       y1="48"
       x1="13.321" />
    <linearGradient
       id="b"
       stop-color="#fff">
      <stop
         stop-opacity="0"
         offset="0"
         id="stop30" />
      <stop
         stop-opacity="0"
         offset="0.3"
         id="stop32" />
      <stop
         stop-opacity=".6124"
         offset=".5"
         id="stop34" />
      <stop
         stop-opacity="0"
         offset=".75265"
         id="stop36" />
      <stop
         stop-opacity="0"
         offset="1"
         id="stop38" />
    </linearGradient>
    <linearGradient
       id="bl"
       y2="84.286003"
       xlink:href="#b"
       gradientUnits="userSpaceOnUse"
       x2="48"
       gradientTransform="matrix(0.21429,0,0,-0.21429,14.714,39.286)"
       y1="48"
       x1="13.321" />
    <linearGradient
       id="bm"
       y2="81.070999"
       xlink:href="#a"
       gradientUnits="userSpaceOnUse"
       x2="48"
       gradientTransform="matrix(0.21429,0,0,0.21429,14.714,18.714)"
       y1="48"
       x1="6" />
    <linearGradient
       id="a">
      <stop
         stop-opacity="0"
         offset="0"
         id="stop19" />
      <stop
         stop-opacity="0"
         offset="0.3"
         id="stop21" />
      <stop
         stop-opacity=".11765"
         offset=".5"
         id="stop23" />
      <stop
         stop-opacity="0"
         offset="0.7"
         id="stop25" />
      <stop
         stop-opacity="0"
         offset="1"
         id="stop27" />
    </linearGradient>
    <linearGradient
       id="bn"
       y2="81.070999"
       xlink:href="#a"
       gradientUnits="userSpaceOnUse"
       x2="48"
       gradientTransform="matrix(-0.21429,0,0,0.21429,35.286,18.714)"
       y1="48"
       x1="6" />
    <linearGradient
       id="bo"
       y2="77.998001"
       xlink:href="#d"
       gradientUnits="userSpaceOnUse"
       x2="48"
       gradientTransform="matrix(0.21875,0,0,0.21875,14.5,18.938)"
       y1="13.998"
       x1="48" />
    <linearGradient
       id="d">
      <stop
         stop-color="#d6d6d6"
         offset="0"
         id="stop41" />
      <stop
         stop-color="#eaeaea"
         offset="1"
         id="stop43" />
    </linearGradient>
    <linearGradient
       id="bp"
       y2="21.964001"
       xlink:href="#c"
       gradientUnits="userSpaceOnUse"
       x2="25"
       y1="36"
       x1="25" />
    <linearGradient
       id="c"
       stop-color="#fff">
      <stop
         offset="0"
         id="stop7" />
      <stop
         stop-opacity="0"
         offset="1"
         id="stop9" />
    </linearGradient>
    <linearGradient
       id="bc"
       y2="6"
       xlink:href="#e"
       gradientUnits="userSpaceOnUse"
       x2="32.070999"
       gradientTransform="matrix(0.21429,0,0,0.21429,34.714,18.714)"
       y1="90"
       x1="63.535999" />
    <linearGradient
       id="bd"
       y2="84.286003"
       xlink:href="#b"
       gradientUnits="userSpaceOnUse"
       x2="48"
       gradientTransform="matrix(-0.21429,0,0,-0.21429,55.286,39.286)"
       y1="48"
       x1="13.321" />
    <linearGradient
       id="be"
       y2="84.286003"
       xlink:href="#b"
       gradientUnits="userSpaceOnUse"
       x2="48"
       gradientTransform="matrix(0.21429,0,0,-0.21429,34.714,39.286)"
       y1="48"
       x1="13.321" />
    <linearGradient
       id="bf"
       y2="81.070999"
       xlink:href="#a"
       gradientUnits="userSpaceOnUse"
       x2="48"
       gradientTransform="matrix(0.21429,0,0,0.21429,34.714,18.714)"
       y1="48"
       x1="6" />
    <linearGradient
       id="bg"
       y2="81.070999"
       xlink:href="#a"
       gradientUnits="userSpaceOnUse"
       x2="48"
       gradientTransform="matrix(-0.21429,0,0,0.21429,55.286,18.714)"
       y1="48"
       x1="6" />
    <linearGradient
       id="bh"
       y2="77.998001"
       xlink:href="#d"
       gradientUnits="userSpaceOnUse"
       x2="48"
       gradientTransform="matrix(0.21875,0,0,0.21875,34.5,18.938)"
       y1="13.998"
       x1="48" />
    <linearGradient
       id="bi"
       y2="21.964001"
       xlink:href="#c"
       gradientUnits="userSpaceOnUse"
       x2="25"
       gradientTransform="translate(20)"
       y1="36"
       x1="25" />
    <linearGradient
       id="av"
       y2="6"
       xlink:href="#e"
       gradientUnits="userSpaceOnUse"
       x2="32.070999"
       gradientTransform="matrix(0.21429,0,0,0.21429,54.714,18.714)"
       y1="90"
       x1="63.535999" />
    <linearGradient
       id="aw"
       y2="84.286003"
       xlink:href="#b"
       gradientUnits="userSpaceOnUse"
       x2="48"
       gradientTransform="matrix(-0.21429,0,0,-0.21429,75.286,39.286)"
       y1="48"
       x1="13.321" />
    <linearGradient
       id="ax"
       y2="84.286003"
       xlink:href="#b"
       gradientUnits="userSpaceOnUse"
       x2="48"
       gradientTransform="matrix(0.21429,0,0,-0.21429,54.714,39.286)"
       y1="48"
       x1="13.321" />
    <linearGradient
       id="ay"
       y2="81.070999"
       xlink:href="#a"
       gradientUnits="userSpaceOnUse"
       x2="48"
       gradientTransform="matrix(0.21429,0,0,0.21429,54.714,18.714)"
       y1="48"
       x1="6" />
    <linearGradient
       id="az"
       y2="81.070999"
       xlink:href="#a"
       gradientUnits="userSpaceOnUse"
       x2="48"
       gradientTransform="matrix(-0.21429,0,0,0.21429,75.286,18.714)"
       y1="48"
       x1="6" />
    <linearGradient
       id="ba"
       y2="77.998001"
       xlink:href="#d"
       gradientUnits="userSpaceOnUse"
       x2="48"
       gradientTransform="matrix(0.21875,0,0,0.21875,54.5,18.938)"
       y1="14"
       x1="48" />
    <linearGradient
       id="bb"
       y2="21.964001"
       xlink:href="#c"
       gradientUnits="userSpaceOnUse"
       x2="25"
       gradientTransform="translate(40)"
       y1="36"
       x1="25" />
    <linearGradient
       id="ao"
       y2="6"
       xlink:href="#e"
       gradientUnits="userSpaceOnUse"
       x2="32.070999"
       gradientTransform="matrix(0.21429,0,0,0.21429,20.714,38.714)"
       y1="90"
       x1="63.535999" />
    <linearGradient
       id="ap"
       y2="84.286003"
       xlink:href="#b"
       gradientUnits="userSpaceOnUse"
       x2="48"
       gradientTransform="matrix(-0.21429,0,0,-0.21429,41.286,59.286)"
       y1="48"
       x1="13.321" />
    <linearGradient
       id="aq"
       y2="84.286003"
       xlink:href="#b"
       gradientUnits="userSpaceOnUse"
       x2="48"
       gradientTransform="matrix(0.21429,0,0,-0.21429,20.714,59.286)"
       y1="48"
       x1="13.321" />
    <linearGradient
       id="ar"
       y2="81.070999"
       xlink:href="#a"
       gradientUnits="userSpaceOnUse"
       x2="48"
       gradientTransform="matrix(0.21429,0,0,0.21429,20.714,38.714)"
       y1="48"
       x1="6" />
    <linearGradient
       id="as"
       y2="81.070999"
       xlink:href="#a"
       gradientUnits="userSpaceOnUse"
       x2="48"
       gradientTransform="matrix(-0.21429,0,0,0.21429,41.286,38.714)"
       y1="48"
       x1="6" />
    <linearGradient
       id="at"
       y2="77.998001"
       xlink:href="#d"
       gradientUnits="userSpaceOnUse"
       x2="48"
       gradientTransform="matrix(0.21875,0,0,0.21875,20.5,38.938)"
       y1="13.998"
       x1="48" />
    <linearGradient
       id="au"
       y2="21.964001"
       xlink:href="#c"
       gradientUnits="userSpaceOnUse"
       x2="25"
       gradientTransform="translate(6,20)"
       y1="36"
       x1="25" />
    <linearGradient
       id="ah"
       y2="6"
       xlink:href="#e"
       gradientUnits="userSpaceOnUse"
       x2="32.070999"
       gradientTransform="matrix(0.21429,0,0,0.21429,40.714,38.714)"
       y1="90"
       x1="63.535999" />
    <linearGradient
       id="ai"
       y2="84.286003"
       xlink:href="#b"
       gradientUnits="userSpaceOnUse"
       x2="48"
       gradientTransform="matrix(-0.21429,0,0,-0.21429,61.286,59.286)"
       y1="48"
       x1="13.321" />
    <linearGradient
       id="aj"
       y2="84.286003"
       xlink:href="#b"
       gradientUnits="userSpaceOnUse"
       x2="48"
       gradientTransform="matrix(0.21429,0,0,-0.21429,40.714,59.286)"
       y1="48"
       x1="13.321" />
    <linearGradient
       id="ak"
       y2="81.070999"
       xlink:href="#a"
       gradientUnits="userSpaceOnUse"
       x2="48"
       gradientTransform="matrix(0.21429,0,0,0.21429,40.714,38.714)"
       y1="48"
       x1="6" />
    <linearGradient
       id="al"
       y2="81.070999"
       xlink:href="#a"
       gradientUnits="userSpaceOnUse"
       x2="48"
       gradientTransform="matrix(-0.21429,0,0,0.21429,61.286,38.714)"
       y1="48"
       x1="6" />
    <linearGradient
       id="am"
       y2="77.998001"
       xlink:href="#d"
       gradientUnits="userSpaceOnUse"
       x2="48"
       gradientTransform="matrix(0.21875,0,0,0.21875,40.5,38.938)"
       y1="13.998"
       x1="48" />
    <linearGradient
       id="an"
       y2="21.964001"
       xlink:href="#c"
       gradientUnits="userSpaceOnUse"
       x2="25"
       gradientTransform="translate(26,20)"
       y1="36"
       x1="25" />
    <linearGradient
       id="y"
       y2="6"
       xlink:href="#e"
       gradientUnits="userSpaceOnUse"
       x2="32.070999"
       gradientTransform="matrix(0.21429,0,0,0.21429,60.714,38.714)"
       y1="90"
       x1="63.535999" />
    <linearGradient
       id="z"
       y2="84.286003"
       xlink:href="#b"
       gradientUnits="userSpaceOnUse"
       x2="48"
       gradientTransform="matrix(-0.21429,0,0,-0.21429,81.286,59.286)"
       y1="48"
       x1="13.321" />
    <linearGradient
       id="ab"
       y2="84.286003"
       xlink:href="#b"
       gradientUnits="userSpaceOnUse"
       x2="48"
       gradientTransform="matrix(0.21429,0,0,-0.21429,60.714,59.286)"
       y1="48"
       x1="13.321" />
    <linearGradient
       id="ad"
       y2="81.070999"
       xlink:href="#a"
       gradientUnits="userSpaceOnUse"
       x2="48"
       gradientTransform="matrix(0.21429,0,0,0.21429,60.714,38.714)"
       y1="48"
       x1="6" />
    <linearGradient
       id="ae"
       y2="81.070999"
       xlink:href="#a"
       gradientUnits="userSpaceOnUse"
       x2="48"
       gradientTransform="matrix(-0.21429,0,0,0.21429,81.286,38.714)"
       y1="48"
       x1="6" />
    <linearGradient
       id="af"
       y2="77.998001"
       xlink:href="#d"
       gradientUnits="userSpaceOnUse"
       x2="48"
       gradientTransform="matrix(0.21875,0,0,0.21875,60.5,38.938)"
       y1="13.998"
       x1="48" />
    <linearGradient
       id="ag"
       y2="21.964001"
       xlink:href="#c"
       gradientUnits="userSpaceOnUse"
       x2="25"
       gradientTransform="translate(46,20)"
       y1="36"
       x1="25" />
    <linearGradient
       id="r"
       y2="6"
       xlink:href="#e"
       gradientUnits="userSpaceOnUse"
       x2="32.070999"
       gradientTransform="matrix(0.21429,0,0,0.21429,56.714,58.714)"
       y1="90"
       x1="63.535999" />
    <linearGradient
       id="s"
       y2="84.286003"
       xlink:href="#b"
       gradientUnits="userSpaceOnUse"
       x2="48"
       gradientTransform="matrix(-0.21429,0,0,-0.21429,77.286,79.286)"
       y1="48"
       x1="13.321" />
    <linearGradient
       id="t"
       y2="84.286003"
       xlink:href="#b"
       gradientUnits="userSpaceOnUse"
       x2="48"
       gradientTransform="matrix(0.21429,0,0,-0.21429,56.714,79.286)"
       y1="48"
       x1="13.321" />
    <linearGradient
       id="u"
       y2="81.070999"
       xlink:href="#a"
       gradientUnits="userSpaceOnUse"
       x2="48"
       gradientTransform="matrix(0.21429,0,0,0.21429,56.714,58.714)"
       y1="48"
       x1="6" />
    <linearGradient
       id="v"
       y2="81.070999"
       xlink:href="#a"
       gradientUnits="userSpaceOnUse"
       x2="48"
       gradientTransform="matrix(-0.21429,0,0,0.21429,77.286,58.714)"
       y1="48"
       x1="6" />
    <linearGradient
       id="w"
       y2="77.998001"
       xlink:href="#d"
       gradientUnits="userSpaceOnUse"
       x2="48"
       gradientTransform="matrix(0.21875,0,0,0.21875,56.5,58.938)"
       y1="13.998"
       x1="48" />
    <linearGradient
       id="x"
       y2="21.964001"
       xlink:href="#c"
       gradientUnits="userSpaceOnUse"
       x2="25"
       gradientTransform="translate(42,40)"
       y1="36"
       x1="25" />
    <linearGradient
       id="k"
       y2="6"
       xlink:href="#e"
       gradientUnits="userSpaceOnUse"
       x2="32.070999"
       gradientTransform="matrix(0.21429,0,0,0.21429,16.714,58.714)"
       y1="90"
       x1="63.535999" />
    <linearGradient
       id="l"
       y2="84.286003"
       xlink:href="#b"
       gradientUnits="userSpaceOnUse"
       x2="48"
       gradientTransform="matrix(-0.21429,0,0,-0.21429,57.286,79.286)"
       y1="48"
       x1="13.321" />
    <linearGradient
       id="m"
       y2="84.286003"
       xlink:href="#b"
       gradientUnits="userSpaceOnUse"
       x2="48"
       gradientTransform="matrix(0.21429,0,0,-0.21429,16.714,79.286)"
       y1="48"
       x1="13.321" />
    <linearGradient
       id="n"
       y2="81.070999"
       xlink:href="#a"
       gradientUnits="userSpaceOnUse"
       x2="48"
       gradientTransform="matrix(0.21429,0,0,0.21429,16.714,58.714)"
       y1="48"
       x1="6" />
    <linearGradient
       id="o"
       y2="81.070999"
       xlink:href="#a"
       gradientUnits="userSpaceOnUse"
       x2="48"
       gradientTransform="matrix(-0.21429,0,0,0.21429,57.286,58.714)"
       y1="48"
       x1="6" />
    <linearGradient
       id="p"
       y2="46"
       xlink:href="#d"
       gradientUnits="userSpaceOnUse"
       x2="80"
       gradientTransform="matrix(0,0.21875,-0.21875,0,37.062,58.5)"
       y1="46"
       x1="16" />
    <linearGradient
       id="q"
       y2="21.964001"
       xlink:href="#c"
       gradientUnits="userSpaceOnUse"
       x2="25"
       gradientTransform="translate(2,40)"
       y1="36"
       x1="25" />
  </defs>
  <sodipodi:namedview
     pagecolor="#ffffff"
     bordercolor="#666666"
     borderopacity="1"
     objecttolerance="10"
     gridtolerance="10"
     guidetolerance="10"
     inkscape:pageopacity="0"
     inkscape:pageshadow="2"
     inkscape:window-width="1719"
     inkscape:window-height="1379"
     id="namedview13"
     showgrid="false"
     inkscape:zoom="2.4583333"
     inkscape:cx="48"
     inkscape:cy="48"
     inkscape:window-x="1720"
     inkscape:window-y="33"
     inkscape:window-maximized="0"
     inkscape:current-layer="svg11" />
  <path
     inkscape:connector-curvature="0"
     id="path2"
     d="M 8.085938,0 H 87.914062 C 92.378906,0 96,3.621094 96,8.085938 V 87.914062 C 96,92.378906 92.378906,96 87.914062,96 H 8.085938 C 3.621094,96 0,92.378906 0,87.914062 V 8.085938 C 0,3.621094 3.621094,0 8.085938,0 Z m 0,0"
     style="fill:#e8ebee;fill-opacity:1;fill-rule:nonzero;stroke:none" />
  <g
     transform="matrix(0.58125623,0,0,0.57384988,31.077124,32.478561)"
     id="g4075">
    <path
       inkscape:connector-curvature="0"
       id="path139"
       d="m 17,18 c -1.662,0 -3,1.338 -3,3 v 16 c 0,1.662 1.338,3 3,3 h 3 v 18 h -1 c -1.662,0 -3,1.338 -3,3 v 16 c 0,1.662 1.338,3 3,3 h 56 c 1.662,0 3,-1.338 3,-3 V 60 h 1 c 1.662,0 3,-1.338 3,-3 V 41 c 0,-1.662 -1.338,-3 -3,-3 H 76 V 21 c 0,-1.662 -1.338,-3 -3,-3 z"
       style="color:#000000;opacity:0.7" />
    <rect
       style="fill:url(#bj)"
       id="rect141"
       x="16"
       y="20"
       width="18"
       height="18"
       ry="1.3"
       rx="1.3" />
    <path
       style="fill:url(#bk)"
       inkscape:connector-curvature="0"
       id="path143"
       d="m 34,29 v -7.7143 c 0,-0.713 -0.573,-1.286 -1.286,-1.286 H 25 v 9 h 9 z" />
    <path
       style="fill:url(#bl)"
       inkscape:connector-curvature="0"
       id="path145"
       d="m 16,29 v -7.7143 c 0,-0.713 0.573,-1.286 1.286,-1.286 H 25 v 9 h -9 z" />
    <path
       style="fill:url(#bm)"
       inkscape:connector-curvature="0"
       id="path147"
       d="m 16,29 v 7.7143 c 0,0.713 0.573,1.286 1.286,1.286 H 25 v -9 h -9 z" />
    <path
       style="fill:url(#bn)"
       inkscape:connector-curvature="0"
       id="path149"
       d="m 34,29 v 7.7143 c 0,0.713 -0.573,1.286 -1.286,1.286 H 25 v -9 h 9 z" />
    <rect
       style="fill:url(#bo)"
       id="rect151"
       x="18"
       y="22"
       width="14"
       height="14"
       ry="1.3"
       rx="1.3" />
    <path
       style="fill:url(#bp)"
       inkscape:connector-curvature="0"
       id="path153"
       d="M 19.281,22 C 18.576,22 18,22.576 18,23.281 V 34.719 C 18,35.424 18.576,36 19.281,36 H 30.719 C 31.424,36 32,35.424 32,34.719 V 23.281 C 32,22.576 31.424,22 30.719,22 Z m 0,1.0938 h 11.438 c 0.11617,0 0.1875,0.07133 0.1875,0.1875 v 11.438 c 0,0.11617 -0.07133,0.1875 -0.1875,0.1875 H 19.282 c -0.11617,0 -0.1875,-0.07133 -0.1875,-0.1875 v -11.438 c 0,-0.11617 0.07133,-0.1875 0.1875,-0.1875 z" />
    <path
       style="opacity:0.2;fill:#ffffff"
       inkscape:connector-curvature="0"
       id="path155"
       d="M 17.281,19 C 16.036,19 15,20.036 15,21.281 V 36.719 C 15,37.964 16.036,39 17.281,39 H 32.719 C 33.964,39 35,37.964 35,36.719 V 21.281 C 35,20.036 33.964,19 32.719,19 Z m 0,1 H 32.719 C 33.431,20 34,20.569 34,21.281 V 36.719 C 34,37.431 33.431,38 32.719,38 H 17.281 C 16.569,38 16,37.431 16,36.719 V 21.281 C 16,20.569 16.569,20 17.281,20 Z" />
    <rect
       style="fill:url(#bc)"
       id="rect157"
       x="36"
       y="20"
       width="18"
       height="18"
       ry="1.3"
       rx="1.3" />
    <path
       style="fill:url(#bd)"
       inkscape:connector-curvature="0"
       id="path159"
       d="m 54,29 v -7.7143 c 0,-0.713 -0.573,-1.286 -1.286,-1.286 H 45 v 9 h 9 z" />
    <path
       style="fill:url(#be)"
       inkscape:connector-curvature="0"
       id="path161"
       d="m 36,29 v -7.7143 c 0,-0.713 0.573,-1.286 1.286,-1.286 H 45 v 9 h -9 z" />
    <path
       style="fill:url(#bf)"
       inkscape:connector-curvature="0"
       id="path163"
       d="m 36,29 v 7.7143 c 0,0.713 0.573,1.286 1.286,1.286 H 45 v -9 h -9 z" />
    <path
       style="fill:url(#bg)"
       inkscape:connector-curvature="0"
       id="path165"
       d="m 54,29 v 7.7143 c 0,0.713 -0.573,1.286 -1.286,1.286 H 45 v -9 h 9 z" />
    <rect
       style="fill:url(#bh)"
       id="rect167"
       x="38"
       y="22"
       width="14"
       height="14"
       ry="1.3"
       rx="1.3" />
    <path
       style="fill:url(#bi)"
       inkscape:connector-curvature="0"
       id="path169"
       d="M 39.281,22 C 38.576,22 38,22.576 38,23.281 V 34.719 C 38,35.424 38.576,36 39.281,36 H 50.719 C 51.424,36 52,35.424 52,34.719 V 23.281 C 52,22.576 51.424,22 50.719,22 Z m 0,1.0938 h 11.438 c 0.11617,0 0.1875,0.07133 0.1875,0.1875 v 11.438 c 0,0.11617 -0.07133,0.1875 -0.1875,0.1875 H 39.282 c -0.11617,0 -0.1875,-0.07133 -0.1875,-0.1875 v -11.438 c 0,-0.11617 0.07133,-0.1875 0.1875,-0.1875 z" />
    <path
       style="opacity:0.2;fill:#ffffff"
       inkscape:connector-curvature="0"
       id="path171"
       d="M 37.281,19 C 36.036,19 35,20.036 35,21.281 V 36.719 C 35,37.964 36.036,39 37.281,39 H 52.719 C 53.964,39 55,37.964 55,36.719 V 21.281 C 55,20.036 53.964,19 52.719,19 Z m 0,1 H 52.719 C 53.431,20 54,20.569 54,21.281 V 36.719 C 54,37.431 53.431,38 52.719,38 H 37.281 C 36.569,38 36,37.431 36,36.719 V 21.281 C 36,20.569 36.569,20 37.281,20 Z" />
    <rect
       style="fill:url(#av)"
       id="rect173"
       x="56"
       y="20"
       width="18"
       height="18"
       ry="1.3"
       rx="1.3" />
    <path
       style="fill:url(#aw)"
       inkscape:connector-curvature="0"
       id="path175"
       d="m 74,29 v -7.7143 c 0,-0.713 -0.573,-1.286 -1.286,-1.286 H 65 v 9 h 9 z" />
    <path
       style="fill:url(#ax)"
       inkscape:connector-curvature="0"
       id="path177"
       d="m 56,29 v -7.7143 c 0,-0.713 0.573,-1.286 1.286,-1.286 H 65 v 9 h -9 z" />
    <path
       style="fill:url(#ay)"
       inkscape:connector-curvature="0"
       id="path179"
       d="m 56,29 v 7.7143 c 0,0.713 0.573,1.286 1.286,1.286 H 65 v -9 h -9 z" />
    <path
       style="fill:url(#az)"
       inkscape:connector-curvature="0"
       id="path181"
       d="m 74,29 v 7.7143 c 0,0.713 -0.573,1.286 -1.286,1.286 H 65 v -9 h 9 z" />
    <rect
       style="fill:url(#ba)"
       id="rect183"
       x="58"
       y="22"
       width="14"
       height="14"
       ry="1.3"
       rx="1.3" />
    <path
       style="fill:url(#bb)"
       inkscape:connector-curvature="0"
       id="path185"
       d="M 59.281,22 C 58.576,22 58,22.576 58,23.281 V 34.719 C 58,35.424 58.576,36 59.281,36 H 70.719 C 71.424,36 72,35.424 72,34.719 V 23.281 C 72,22.576 71.424,22 70.719,22 Z m 0,1.0938 h 11.438 c 0.11617,0 0.1875,0.07133 0.1875,0.1875 v 11.438 c 0,0.11617 -0.07133,0.1875 -0.1875,0.1875 H 59.282 c -0.11617,0 -0.1875,-0.07133 -0.1875,-0.1875 v -11.438 c 0,-0.11617 0.07133,-0.1875 0.1875,-0.1875 z" />
    <path
       style="opacity:0.2;fill:#ffffff"
       inkscape:connector-curvature="0"
       id="path187"
       d="M 57.281,19 C 56.036,19 55,20.036 55,21.281 V 36.719 C 55,37.964 56.036,39 57.281,39 H 72.719 C 73.964,39 75,37.964 75,36.719 V 21.281 C 75,20.036 73.964,19 72.719,19 Z m 0,1 H 72.719 C 73.431,20 74,20.569 74,21.281 V 36.719 C 74,37.431 73.431,38 72.719,38 H 57.281 C 56.569,38 56,37.431 56,36.719 V 21.281 C 56,20.569 56.569,20 57.281,20 Z" />
    <rect
       style="fill:url(#ao)"
       id="rect189"
       x="22"
       y="40"
       width="18"
       height="18"
       ry="1.3"
       rx="1.3" />
    <path
       style="fill:url(#ap)"
       inkscape:connector-curvature="0"
       id="path191"
       d="m 40,49 v -7.7143 c 0,-0.713 -0.573,-1.286 -1.286,-1.286 H 31 v 9 h 9 z" />
    <path
       style="fill:url(#aq)"
       inkscape:connector-curvature="0"
       id="path193"
       d="m 22,49 v -7.7143 c 0,-0.713 0.573,-1.286 1.286,-1.286 H 31 v 9 h -9 z" />
    <path
       style="fill:url(#ar)"
       inkscape:connector-curvature="0"
       id="path195"
       d="m 22,49 v 7.7143 c 0,0.713 0.573,1.286 1.286,1.286 H 31 v -9 h -9 z" />
    <path
       style="fill:url(#as)"
       inkscape:connector-curvature="0"
       id="path197"
       d="m 40,49 v 7.7143 c 0,0.713 -0.573,1.286 -1.286,1.286 H 31 v -9 h 9 z" />
    <rect
       style="fill:url(#at)"
       id="rect199"
       x="24"
       y="42"
       width="14"
       height="14"
       ry="1.3"
       rx="1.3" />
    <path
       style="fill:url(#au)"
       inkscape:connector-curvature="0"
       id="path201"
       d="M 25.281,42 C 24.576,42 24,42.576 24,43.281 V 54.719 C 24,55.424 24.576,56 25.281,56 H 36.719 C 37.424,56 38,55.424 38,54.719 V 43.281 C 38,42.576 37.424,42 36.719,42 Z m 0,1.0938 h 11.438 c 0.11617,0 0.1875,0.07133 0.1875,0.1875 v 11.438 c 0,0.11617 -0.07133,0.1875 -0.1875,0.1875 H 25.282 c -0.11617,0 -0.1875,-0.07133 -0.1875,-0.1875 v -11.438 c 0,-0.11617 0.07133,-0.1875 0.1875,-0.1875 z" />
    <rect
       style="fill:url(#ah)"
       id="rect205"
       x="42"
       y="40"
       width="18"
       height="18"
       ry="1.3"
       rx="1.3" />
    <path
       style="fill:url(#ai)"
       inkscape:connector-curvature="0"
       id="path207"
       d="m 60,49 v -7.7143 c 0,-0.713 -0.573,-1.286 -1.286,-1.286 H 51 v 9 h 9 z" />
    <path
       style="fill:url(#aj)"
       inkscape:connector-curvature="0"
       id="path209"
       d="m 42,49 v -7.7143 c 0,-0.713 0.573,-1.286 1.286,-1.286 H 51 v 9 h -9 z" />
    <path
       style="fill:url(#ak)"
       inkscape:connector-curvature="0"
       id="path211"
       d="m 42,49 v 7.7143 c 0,0.713 0.573,1.286 1.286,1.286 H 51 v -9 h -9 z" />
    <path
       style="fill:url(#al)"
       inkscape:connector-curvature="0"
       id="path213"
       d="m 60,49 v 7.7143 c 0,0.713 -0.573,1.286 -1.286,1.286 H 51 v -9 h 9 z" />
    <rect
       style="fill:url(#am)"
       id="rect215"
       x="44"
       y="42"
       width="14"
       height="14"
       ry="1.3"
       rx="1.3" />
    <path
       style="fill:url(#an)"
       inkscape:connector-curvature="0"
       id="path217"
       d="M 45.281,42 C 44.576,42 44,42.576 44,43.281 V 54.719 C 44,55.424 44.576,56 45.281,56 H 56.719 C 57.424,56 58,55.424 58,54.719 V 43.281 C 58,42.576 57.424,42 56.719,42 Z m 0,1.0938 h 11.438 c 0.11617,0 0.1875,0.07133 0.1875,0.1875 v 11.438 c 0,0.11617 -0.07133,0.1875 -0.1875,0.1875 H 45.282 c -0.11617,0 -0.1875,-0.07133 -0.1875,-0.1875 v -11.438 c 0,-0.11617 0.07133,-0.1875 0.1875,-0.1875 z" />
    <path
       style="opacity:0.2;fill:#ffffff"
       inkscape:connector-curvature="0"
       id="path219"
       d="M 43.281,39 C 42.036,39 41,40.036 41,41.281 V 56.719 C 41,57.964 42.036,59 43.281,59 H 58.719 C 59.964,59 61,57.964 61,56.719 V 41.281 C 61,40.036 59.964,39 58.719,39 Z m 0,1 H 58.719 C 59.431,40 60,40.569 60,41.281 V 56.719 C 60,57.431 59.431,58 58.719,58 H 43.281 C 42.569,58 42,57.431 42,56.719 V 41.281 C 42,40.569 42.569,40 43.281,40 Z" />
    <rect
       style="fill:url(#y)"
       id="rect221"
       x="62"
       y="40"
       width="18"
       height="18"
       ry="1.3"
       rx="1.3" />
    <path
       style="fill:url(#z)"
       inkscape:connector-curvature="0"
       id="path223"
       d="m 80,49 v -7.7143 c 0,-0.713 -0.573,-1.286 -1.286,-1.286 H 71 v 9 h 9 z" />
    <path
       style="fill:url(#ab)"
       inkscape:connector-curvature="0"
       id="path225"
       d="m 62,49 v -7.7143 c 0,-0.713 0.573,-1.286 1.286,-1.286 H 71 v 9 h -9 z" />
    <path
       style="fill:url(#ad)"
       inkscape:connector-curvature="0"
       id="path227"
       d="m 62,49 v 7.7143 c 0,0.713 0.573,1.286 1.286,1.286 H 71 v -9 h -9 z" />
    <path
       style="fill:url(#ae)"
       inkscape:connector-curvature="0"
       id="path229"
       d="m 80,49 v 7.7143 c 0,0.713 -0.573,1.286 -1.286,1.286 H 71 v -9 h 9 z" />
    <rect
       style="fill:url(#af)"
       id="rect231"
       x="64"
       y="42"
       width="14"
       height="14"
       ry="1.3"
       rx="1.3" />
    <path
       style="fill:url(#ag)"
       inkscape:connector-curvature="0"
       id="path233"
       d="M 65.281,42 C 64.576,42 64,42.576 64,43.281 V 54.719 C 64,55.424 64.576,56 65.281,56 H 76.719 C 77.424,56 78,55.424 78,54.719 V 43.281 C 78,42.576 77.424,42 76.719,42 Z m 0,1.0938 h 11.438 c 0.11617,0 0.1875,0.07133 0.1875,0.1875 v 11.438 c 0,0.11617 -0.07133,0.1875 -0.1875,0.1875 H 65.282 c -0.11617,0 -0.1875,-0.07133 -0.1875,-0.1875 v -11.438 c 0,-0.11617 0.07133,-0.1875 0.1875,-0.1875 z" />
    <path
       style="opacity:0.2;fill:#ffffff"
       inkscape:connector-curvature="0"
       id="path235"
       d="M 63.281,39 C 62.036,39 61,40.036 61,41.281 V 56.719 C 61,57.964 62.036,59 63.281,59 H 78.719 C 79.964,59 81,57.964 81,56.719 V 41.281 C 81,40.036 79.964,39 78.719,39 Z m 0,1 H 78.719 C 79.431,40 80,40.569 80,41.281 V 56.719 C 80,57.431 79.431,58 78.719,58 H 63.281 C 62.569,58 62,57.431 62,56.719 V 41.281 C 62,40.569 62.569,40 63.281,40 Z" />
    <rect
       style="fill:url(#r)"
       id="rect237"
       x="58"
       y="60"
       width="18"
       height="18"
       ry="1.3"
       rx="1.3" />
    <path
       style="fill:url(#s)"
       inkscape:connector-curvature="0"
       id="path239"
       d="m 76,69 v -7.7143 c 0,-0.713 -0.573,-1.286 -1.286,-1.286 H 67 v 9 h 9 z" />
    <path
       style="fill:url(#t)"
       inkscape:connector-curvature="0"
       id="path241"
       d="m 58,69 v -7.7143 c 0,-0.713 0.573,-1.286 1.286,-1.286 H 67 v 9 h -9 z" />
    <path
       style="fill:url(#u)"
       inkscape:connector-curvature="0"
       id="path243"
       d="m 58,69 v 7.7143 c 0,0.713 0.573,1.286 1.286,1.286 H 67 v -9 h -9 z" />
    <path
       style="fill:url(#v)"
       inkscape:connector-curvature="0"
       id="path245"
       d="m 76,69 v 7.7143 c 0,0.713 -0.573,1.286 -1.286,1.286 H 67 v -9 h 9 z" />
    <rect
       style="fill:url(#w)"
       id="rect247"
       x="60"
       y="62"
       width="14"
       height="14"
       ry="1.3"
       rx="1.3" />
    <path
       style="fill:url(#x)"
       inkscape:connector-curvature="0"
       id="path249"
       d="M 61.281,62 C 60.576,62 60,62.576 60,63.281 V 74.719 C 60,75.424 60.576,76 61.281,76 H 72.719 C 73.424,76 74,75.424 74,74.719 V 63.281 C 74,62.576 73.424,62 72.719,62 Z m 0,1.0938 h 11.438 c 0.11617,0 0.1875,0.07133 0.1875,0.1875 v 11.438 c 0,0.11617 -0.07133,0.1875 -0.1875,0.1875 H 61.282 c -0.11617,0 -0.1875,-0.07133 -0.1875,-0.1875 v -11.438 c 0,-0.11617 0.07133,-0.1875 0.1875,-0.1875 z" />
    <path
       style="opacity:0.2;fill:#ffffff"
       inkscape:connector-curvature="0"
       id="path251"
       d="M 59.281,59 C 58.036,59 57,60.036 57,61.281 V 76.719 C 57,77.964 58.036,79 59.281,79 H 74.719 C 75.964,79 77,77.964 77,76.719 V 61.281 C 77,60.036 75.964,59 74.719,59 Z m 0,1 H 74.719 C 75.431,60 76,60.569 76,61.281 V 76.719 C 76,77.431 75.431,78 74.719,78 H 59.281 C 58.569,78 58,77.431 58,76.719 V 61.281 C 58,60.569 58.569,60 59.281,60 Z" />
    <path
       style="fill:url(#k)"
       inkscape:connector-curvature="0"
       id="path253"
       d="M 19.286,60 H 54.715 C 55.427,60 56,60.573 56,61.286 V 76.715 C 56,77.427 55.427,78 54.714,78 H 19.286 C 18.573,78 18,77.427 18,76.714 V 61.286 C 18,60.573 18.573,60 19.286,60 Z" />
    <path
       style="fill:url(#l)"
       inkscape:connector-curvature="0"
       id="path255"
       d="m 56,69 v -7.7143 c 0,-0.713 -0.573,-1.286 -1.286,-1.286 H 47 v 9 h 9 z" />
    <path
       style="fill:url(#m)"
       inkscape:connector-curvature="0"
       id="path257"
       d="m 18,69 v -7.7143 c 0,-0.713 0.573,-1.286 1.286,-1.286 H 27 v 9 h -9 z" />
    <path
       style="fill:url(#n)"
       inkscape:connector-curvature="0"
       id="path259"
       d="m 18,69 v 7.7143 c 0,0.713 0.573,1.286 1.286,1.286 H 27 v -9 h -9 z" />
    <path
       style="fill:url(#o)"
       inkscape:connector-curvature="0"
       id="path261"
       d="m 56,69 v 7.7143 c 0,0.713 -0.573,1.286 -1.286,1.286 H 47 v -9 h 9 z" />
    <path
       style="fill:url(#p)"
       inkscape:connector-curvature="0"
       id="path263"
       d="M 54,63.273 V 74.728 C 54,75.432 53.432,76 52.727,76 H 21.272 C 20.568,76 20,75.432 20,74.727 V 63.272 C 20,62.568 20.568,62 21.273,62 H 52.728 C 53.432,62 54,62.568 54,63.273 Z" />
    <path
       style="fill:url(#q)"
       inkscape:connector-curvature="0"
       id="path265"
       d="M 21.281,62 C 20.576,62 20,62.576 20,63.281 V 74.719 C 20,75.424 20.576,76 21.281,76 H 52.719 C 53.424,76 54,75.424 54,74.719 V 63.281 C 54,62.576 53.424,62 52.719,62 Z m 0,1.0938 h 31.438 c 0.11617,0 0.1875,0.07133 0.1875,0.1875 v 11.438 c 0,0.11617 -0.07133,0.1875 -0.1875,0.1875 H 21.282 c -0.11617,0 -0.1875,-0.07133 -0.1875,-0.1875 v -11.438 c 0,-0.11617 0.07133,-0.1875 0.1875,-0.1875 z" />
    <path
       style="opacity:0.2;fill:#ffffff"
       inkscape:connector-curvature="0"
       id="path267"
       d="M 19.281,59 C 18.036,59 17,60.036 17,61.281 V 76.719 C 17,77.964 18.036,79 19.281,79 H 54.719 C 55.964,79 57,77.964 57,76.719 V 61.281 C 57,60.036 55.964,59 54.719,59 Z m 0,1 H 54.719 C 55.431,60 56,60.569 56,61.281 V 76.719 C 56,77.431 55.431,78 54.719,78 H 19.281 C 18.569,78 18,77.431 18,76.719 V 61.281 C 18,60.569 18.569,60 19.281,60 Z" />
    <path
       inkscape:connector-curvature="0"
       id="path269"
       d="m 14,37 v 1 c 0,1.662 1.338,3 3,3 h 3 v -1 h -3 c -1.662,0 -3,-1.338 -3,-3 z m 68,20 c 0,1.662 -1.338,3 -3,3 h -1 v 1 h 1 c 1.662,0 3,-1.338 3,-3 z M 16,77 v 1 c 0,1.662 1.338,3 3,3 h 56 c 1.662,0 3,-1.338 3,-3 v -1 c 0,1.662 -1.338,3 -3,3 H 19 c -1.662,0 -3,-1.338 -3,-3 z"
       style="color:#000000;opacity:0.6;fill:#ffffff" />
  </g>
  <path
     inkscape:connector-curvature="0"
     id="path4"
     d="m 44.948946,27.611483 h -26.01052 v -3.81338 h 10.621166 v -5.038304 h 4.820509 v 5.038304 h 10.568845 z m -12.9791,18.406084 c -1.56963,0.03546 -3.132284,-0.180516 -4.62169,-0.631803 C 26.151751,44.986052 25.046032,44.380037 24.09379,43.603179 23.242702,42.9198 22.56253,42.075247 22.098616,41.127543 21.655632,40.237862 21.42193,39.270818 21.414955,38.294103 v -1.363535 c -0.0034,-0.992831 0.219748,-1.975994 0.655756,-2.881791 0.463914,-0.950928 1.144086,-1.79548 1.995174,-2.475634 0.973171,-0.757521 2.09284,-1.34097 3.296224,-1.72134 1.489406,-0.460958 3.052059,-0.683379 4.62169,-0.657592 1.569631,-0.0258 3.132284,0.196634 4.621689,0.657592 1.20687,0.383593 2.323053,0.976715 3.292736,1.743902 0.8476,0.686603 1.527773,1.531154 1.995175,2.475636 0.436007,0.896127 0.659245,1.866396 0.659245,2.846334 v 1.363532 c 0,0.976716 -0.223238,1.943761 -0.659245,2.833442 -0.460425,0.950928 -1.140599,1.79548 -1.995175,2.475635 -0.966195,0.789753 -2.089352,1.398991 -3.306688,1.79548 -1.489405,0.451287 -3.055547,0.667262 -4.62169,0.631803 z m 0,-3.590962 c 0.88597,0.01295 1.768451,-0.11282 2.612564,-0.370698 0.683661,-0.20308 1.315001,-0.531876 1.859138,-0.963822 0.477866,-0.393265 0.858064,-0.873563 1.112695,-1.411885 0.237189,-0.512533 0.362759,-1.063749 0.362759,-1.621411 v -0.9058 c -0.0034,-0.551215 -0.125566,-1.099207 -0.362759,-1.608517 -0.254631,-0.538321 -0.634829,-1.01862 -1.112695,-1.411886 -0.540649,-0.431946 -1.168501,-0.760742 -1.845187,-0.976714 -1.71264,-0.477077 -3.540389,-0.477077 -5.253029,0 -0.676685,0.215972 -1.304537,0.544768 -1.848676,0.976714 -0.474377,0.393266 -0.854577,0.873565 -1.109205,1.411886 -0.237189,0.50931 -0.359271,1.057302 -0.362759,1.608517 v 0.9058 c 0,0.557662 0.125566,1.108878 0.362759,1.621411 0.254628,0.538322 0.634828,1.01862 1.109205,1.411885 0.547626,0.435171 1.185943,0.763964 1.876581,0.963822 0.837136,0.261101 1.716129,0.386817 2.598609,0.370698 z m -0.589483,14.260687 h 24.109523 v 3.910085 H 26.517997 V 49.01218 h 4.862366 z M 60.634786,35.483225 h -6.44595 V 49.556949 H 49.368327 V 19.169183 h 4.820509 v 12.439418 h 6.44595 z m 0,0"
     style="fill:#7d57c2;fill-opacity:1;fill-rule:nonzero;stroke:none;stroke-width:0.8584106" />
</svg>
